<svg width="56" height="56" viewBox="0 0 56 56" fill="none" xmlns="http://www.w3.org/2000/svg">
<path d="M32.9249 28.9524H30.701C27.2082 28.9524 23.8211 26.8405 23.8211 21.5602C23.8211 16.0593 26.9963 13.8158 30.2246 13.8158H32.9248V28.9524H32.9249ZM36.4176 11H30.3834C24.4566 11 19.4283 14.74 19.4283 22.0003C19.4283 26.3564 21.8638 29.5681 26.2023 31.1522L18.1062 43.2964C17.8417 43.6927 18.1062 44 18.5283 44H22.2859C22.6035 44 22.8154 43.9122 22.921 43.6927L30.2774 31.7679H32.9248V43.6927C32.9248 43.8243 33.0836 44 33.2938 44H36.5764C36.894 44 36.9999 43.8681 36.9999 43.6489V11.4404C36.9999 11.1316 36.788 11 36.4176 11" fill="#fff"/>
</svg>
